<svg xmlns="http://www.w3.org/2000/svg" viewBox="0 0 684.93 109.34"><defs><style>.cls-1{fill:#aed1ed;}.cls-2{fill:#94c2e7;}.cls-3{fill:#7bb3e2;}.cls-4{fill:#5a6778;}</style></defs><g id="Layer_2" data-name="Layer 2"><g id="Layer_1-2" data-name="Layer 1"><path class="cls-1" d="M46.11,83.05S24.07,96.6,0,101.52c0,0,22.43,10.21,44.31,7.29L60.9,96.19l-7.11-6.52Z"/><path class="cls-2" d="M9.66,39.16s52.88,37.93,34.65,69.65c0,0,64.57-1.06,90.28-108.81C134.59,0,106.25,41.68,9.66,39.16Z"/><path class="cls-3" d="M46.11,83.05h0c70.72-36,88.48-83,88.48-83S106.25,41.68,9.66,39.16C9.66,39.16,38.18,59.62,46.11,83.05Z"/><path class="cls-3" d="M146.13,70.22V19.61l14.38,7.25V43.18a31.92,31.92,0,0,1,18.06-5.51,31.36,31.36,0,0,1,23,9.54,31.36,31.36,0,0,1,9.54,23,31.36,31.36,0,0,1-9.54,23,32.47,32.47,0,0,1-55.45-23Zm32.44,18.06a18.11,18.11,0,0,0,18.16-18.06A18.11,18.11,0,1,0,165.82,83,17.37,17.37,0,0,0,178.57,88.28Z"/><path class="cls-3" d="M273.1,93.23a32.52,32.52,0,0,1-46,0,31.36,31.36,0,0,1-9.54-23,31.36,31.36,0,0,1,9.54-23,32.52,32.52,0,0,1,46,0,31.36,31.36,0,0,1,9.54,23A31.36,31.36,0,0,1,273.1,93.23ZM237.34,83a18.06,18.06,0,0,0,30.81-12.75,18.06,18.06,0,1,0-36.12,0A17.37,17.37,0,0,0,237.34,83Z"/><path class="cls-3" d="M345,93.23a32.52,32.52,0,0,1-46,0,31.36,31.36,0,0,1-9.54-23,31.36,31.36,0,0,1,9.54-23,32.52,32.52,0,0,1,46,0,31.36,31.36,0,0,1,9.54,23A31.36,31.36,0,0,1,345,93.23ZM309.27,83a18.06,18.06,0,0,0,30.81-12.75A18.06,18.06,0,1,0,309.27,83Z"/><path class="cls-3" d="M361.61,19.61l14.48,7.25v40l21.33-29.18h17.95L393.64,67.36l25.41,35.41H401.19l-25.1-35.1v35.1H361.61Z"/><path class="cls-4" d="M464,37.67h15.71l-28.87,65.1-29-65.1h15.72l13.26,29.69Z"/><path class="cls-4" d="M542.81,70.22v36.12l-16-8.06a31.76,31.76,0,0,1-16.53,4.49,31.36,31.36,0,0,1-23-9.54,31.36,31.36,0,0,1-9.54-23,31.36,31.36,0,0,1,9.54-23,32.52,32.52,0,0,1,46,0A31.36,31.36,0,0,1,542.81,70.22ZM523.07,57.46A18.07,18.07,0,0,0,492.2,70.22a18.06,18.06,0,1,0,30.87-12.76Z"/><path class="cls-4" d="M550.36,73.79V37.67h14.38V73.79a14.49,14.49,0,0,0,29,0V37.67h14.49V73.79a28.93,28.93,0,1,1-57.85,0Z"/><path class="cls-4" d="M616.67,70.22V19.61l14.49,7.25V70.22a18.13,18.13,0,0,0,18.06,18.06v14.49a31.36,31.36,0,0,1-23-9.54A31.36,31.36,0,0,1,616.67,70.22Z"/><path class="cls-4" d="M674.12,26.86V37h6.53V47.77h-6.53V81a6.94,6.94,0,0,0,2.14,5.16,7.07,7.07,0,0,0,5.1,2.09h3.57v14.49h-3.57A21.77,21.77,0,0,1,659.63,81V47.77H653.1V37h6.53V19.61Z"/></g></g></svg>